<svg xmlns="http://www.w3.org/2000/svg" width="256" height="256" id="delete"><switch><g><linearGradient id="a" x1="127.999" x2="127.999" y1=".992" y2="252.659" gradientUnits="userSpaceOnUse"><stop offset="0" stop-color="#f15454"></stop><stop offset="1" stop-color="#d93b3b"></stop></linearGradient><circle cx="128" cy="128.001" r="128" fill="url(#a)"></circle><path fill="#D8D8D8" d="M127.999 251.748c-69.981 0-126.835-56.162-127.972-125.873-.012.708-.027 1.415-.027 2.126C0 198.693 57.307 256 127.999 256 198.693 256 256 198.693 256 128.001c0-.711-.016-1.418-.026-2.126-1.136 69.711-57.992 125.873-127.975 125.873z" opacity=".2"></path><path fill="#2C2C2C" d="m159.71 130.104 36.722-36.723c5.771-5.771 5.774-15.214 0-20.983L184.89 60.855c-5.766-5.771-15.215-5.771-20.986.001l-36.721 36.721L90.46 60.856c-5.771-5.771-15.215-5.771-20.986-.001L57.935 72.398c-5.771 5.77-5.771 15.213 0 20.983l36.722 36.723-36.722 36.722c-5.771 5.774-5.771 15.218 0 20.986l11.539 11.542c5.771 5.777 15.215 5.774 20.986 0l36.722-36.722 36.721 36.722c5.771 5.774 15.221 5.777 20.986 0l11.542-11.542c5.774-5.769 5.771-15.212 0-20.986l-36.721-36.722z" opacity=".1"></path><path fill="#FAFAFA" d="m159.71 127.271 36.722-36.724c5.771-5.77 5.774-15.214 0-20.983L184.89 58.021c-5.766-5.77-15.215-5.77-20.986.002l-36.721 36.721L90.46 58.022c-5.771-5.771-15.215-5.771-20.986-.002L57.935 69.563c-5.771 5.77-5.771 15.214 0 20.983l36.722 36.724-36.722 36.722c-5.771 5.773-5.771 15.218 0 20.986l11.539 11.542c5.771 5.776 15.215 5.773 20.986 0l36.722-36.722 36.721 36.722c5.771 5.773 15.221 5.776 20.986 0l11.542-11.542c5.774-5.769 5.771-15.213 0-20.986l-36.721-36.721z"></path><path fill="#2C2C2C" d="m93.239 125.854 1.417-1.418-36.721-36.723a14.754 14.754 0 0 1-4.261-9.074c-.404 4.26 1.017 8.665 4.261 11.908l35.304 35.307zm103.193-35.307c3.246-3.244 4.667-7.65 4.263-11.911a14.754 14.754 0 0 1-4.263 9.077l-36.722 36.723 1.418 1.418 35.304-35.307zm0 91.597-11.542 11.543c-5.766 5.776-15.215 5.773-20.986 0l-36.721-36.722-36.723 36.722c-5.771 5.773-15.215 5.776-20.986 0l-11.539-11.543a14.749 14.749 0 0 1-4.261-9.072c-.404 4.26 1.017 8.664 4.261 11.907l11.539 11.542c5.771 5.776 15.215 5.773 20.986 0l36.722-36.722 36.721 36.722c5.771 5.773 15.221 5.776 20.986 0l11.542-11.542c3.246-3.243 4.666-7.646 4.263-11.906a14.748 14.748 0 0 1-4.262 9.071z" opacity=".2"></path></g></switch></svg>